<svg xmlns="http://www.w3.org/2000/svg" viewBox="0 0 62 16"><path fill="#ffed00" d="M0 0h62v16H0z"/><path fill="#005aa1" d="M4.41 3.75v8.47h3.5c.84 0 2.93-.1 2.93-2.24.02-1.16-.35-1.97-1.75-2.15a1.81 1.81 0 001.6-1.9c0-1.8-1.28-2.18-2.74-2.18zm2.18 1.32h1a1 1 0 011.02 1.07c0 .82-.52 1.08-.89 1.08H6.6zm32.2.13a1.84 1.84 0 00-.31.03h-2.93v7h1.86V9.37h1c1.91 0 2.16-1.26 2.16-2A1.84 1.84 0 0038.8 5.2zm5.75.03a1.67 1.67 0 00-.13 0h-3.39v7h1.84V6.32h.61a1 1 0 011 1.06c0 .58-.3 1.06-.77 1h-.51l1.67 3.8h1.63l-1.56-3.31c.92-.17 1.28-.72 1.28-1.8a1.67 1.67 0 00-1.67-1.83zm2.37 0v6.94h4.38V11.1h-2.58V9.08H51V8h-2.29V6.3h2.49V5.25zm4.81 0l1.8 6.97h2.13l1.94-6.96h-1.76l-1.15 5.06h-.02l-1.05-5.06zm-27.09.05c-1.88 0-2.34.84-2.34 1.92 0 2.06 3.37 2 3.37 3.17a.71.71 0 01-.78.79h-2.4l-1.8-5.87h-2.13l-2 6.3-1.21-2.71c.9-.17 1.27-.74 1.27-1.74a1.66 1.66 0 00-1.82-1.81h-3.38v6.92h1.83v-5.9h.61a1 1 0 011 1.05c0 .58-.29 1.05-.76 1h-.51l1.66 3.77h2.92l.44-1.52h1.89l.43 1.52h4.25c1.17 0 2.36-.14 2.36-1.94 0-2.04-3.03-1.84-3.03-3.15a.7.7 0 01.8-.73h1.63V5.28zm3.5 0v6.93h1.78V5.29zm2.83 0v6.93h3.86v-1.05h-2.08V5.29zm6.45 1h.63c.37 0 .8.3.8 1.05a1 1 0 01-.76.97v-.01h-.67zm-17.91.5l.71 2.84h-1.35zM6.59 8.55h1c.85 0 1.12.46 1.12 1.2 0 1.17-.82 1.18-1.18 1.18h-.94z"/></svg>
